<svg xmlns="http://www.w3.org/2000/svg" version="1.1" width="24px" height="24px" style="shape-rendering:geometricPrecision; text-rendering:geometricPrecision; image-rendering:optimizeQuality; fill-rule:evenodd; clip-rule:evenodd" xmlns:xlink="http://www.w3.org/1999/xlink" transform="rotate(0) scale(1, 1)">
<g><path style="opacity:0.848" fill="#ffffff" d="M 7.5,4.5 C 11.5,4.5 15.5,4.5 19.5,4.5C 19.8789,9.2973 19.3789,13.964 18,18.5C 13.8631,21.8291 9.36311,22.3291 4.5,20C 1.15697,13.8534 2.15697,8.68671 7.5,4.5 Z M 14.5,6.5 C 16.9784,9.52982 17.1451,12.8632 15,16.5C 13.1159,18.5763 10.9492,18.9097 8.5,17.5C 9.59222,14.9058 11.2589,12.7391 13.5,11C 9.98403,11.1495 7.48403,12.9828 6,16.5C 5.33333,14.5 5.33333,12.5 6,10.5C 8.56376,8.37571 11.3971,7.04238 14.5,6.5 Z"/></g>
</svg>